<?xml version="1.0" encoding="UTF-8"?>
<svg version="1.1" xmlns="http://www.w3.org/2000/svg" width="80" height="80">
<path d="M0 0 C1.216875 0.04125 2.43375 0.0825 3.6875 0.125 C3.3575 1.115 3.0275 2.105 2.6875 3.125 C0.0475 3.455 -2.5925 3.785 -5.3125 4.125 C-4.8175 7.095 -4.8175 7.095 -4.3125 10.125 C-2.9925 10.125 -1.6725 10.125 -0.3125 10.125 C-0.8075 8.145 -0.8075 8.145 -1.3125 6.125 C3.18406104 3.87671948 6.76622966 3.95817728 11.6875 4.125 C11.3575 5.115 11.0275 6.105 10.6875 7.125 C8.0475 7.455 5.4075 7.785 2.6875 8.125 C2.6875 8.785 2.6875 9.445 2.6875 10.125 C3.43 10.186875 4.1725 10.24875 4.9375 10.3125 C9.10827145 11.54477338 10.63552106 14.34790701 12.78125 17.97265625 C13.85463688 20.52195009 13.98764397 22.49048668 14 25.25 C14.01675781 26.11882813 14.03351563 26.98765625 14.05078125 27.8828125 C13.93089844 28.62273438 13.81101562 29.36265625 13.6875 30.125 C10.05554504 32.54630331 8.30400652 32.33522785 4 32.25 C2.82050781 32.23195312 1.64101563 32.21390625 0.42578125 32.1953125 C-0.92966797 32.16050781 -0.92966797 32.16050781 -2.3125 32.125 C-2.26609375 32.80046875 -2.2196875 33.4759375 -2.171875 34.171875 C-1.87745468 41.44826284 -1.87745468 41.44826284 -4 44.75 C-6.70113089 46.35607783 -8.23085284 46.23743157 -11.3125 46.125 C-11.25449219 46.970625 -11.19648437 47.81625 -11.13671875 48.6875 C-10.7782895 57.6994354 -11.90207982 62.34791781 -17.95703125 68.90625 C-21.91965158 72.69891596 -24.84997352 73.90203974 -30.3125 74.125 C-30.3125 75.445 -30.3125 76.765 -30.3125 78.125 C-32.11328125 77.9296875 -32.11328125 77.9296875 -34.3125 77.125 C-35.98046875 74.9453125 -35.98046875 74.9453125 -37.5 72.25 C-38.00917969 71.36570312 -38.51835938 70.48140625 -39.04296875 69.5703125 C-42.90502223 62.13140333 -42.4839406 51.14818823 -40.59375 43.04296875 C-39.06920366 39.33610808 -37.79969504 37.49039628 -34.5625 35.0625 C-33.82 34.753125 -33.0775 34.44375 -32.3125 34.125 C-32.95316406 33.84527344 -33.59382813 33.56554688 -34.25390625 33.27734375 C-43.44697872 29.01647111 -49.11868892 23.95408569 -53.44140625 14.69921875 C-54.81324021 10.64523408 -54.71697257 7.37196203 -54.3125 3.125 C-51.74096514 0.55346514 -44.70049487 1.84156088 -41.25 1.8125 C-40.12916016 1.78349609 -39.00832031 1.75449219 -37.85351562 1.72460938 C-31.13169645 1.67329778 -25.83286649 2.04711548 -20.3125 6.125 C-18.0703125 8.34375 -18.0703125 8.34375 -16.4375 10.625 C-15.60605469 11.75421875 -15.60605469 11.75421875 -14.7578125 12.90625 C-13.44001988 14.92923974 -12.33517975 16.9406355 -11.3125 19.125 C-7.46888566 13.43645078 -8.35907201 8.58074131 -9.3125 2.125 C-6.0650689 0.68043345 -3.55743528 -0.12059103 0 0 Z " fill="#866554" transform="translate(60.3125,1.875)"/>
<path d="M0 0 C7.56428091 0.05471451 14.91453156 4.86036074 20.6875 9.4375 C20.13320313 9.01597656 19.57890625 8.59445312 19.0078125 8.16015625 C18.28335937 7.61230469 17.55890625 7.06445312 16.8125 6.5 C16.09320312 5.95472656 15.37390625 5.40945312 14.6328125 4.84765625 C12.74392921 3.39785376 12.74392921 3.39785376 10.6875 2.4375 C10.6875 1.7775 10.6875 1.1175 10.6875 0.4375 C16.90090171 0.04916239 22.51027641 0.75403413 27.421875 4.90234375 C28.8803069 6.37882555 30.28661984 7.90630541 31.6875 9.4375 C32.6775 10.0975 33.6675 10.7575 34.6875 11.4375 C34.6875 12.4275 34.6875 13.4175 34.6875 14.4375 C35.1825 15.4275 35.1825 15.4275 35.6875 16.4375 C36.6875 18.4375 36.6875 18.4375 36.6875 21.4375 C33.7175 21.9325 33.7175 21.9325 30.6875 22.4375 C31.904375 22.52 33.12125 22.6025 34.375 22.6875 C38.50090402 23.20597643 40.73807986 24.40133221 43.6875 27.4375 C45.96646258 30.69316082 46.24653265 33.52427143 45.6875 37.4375 C43.25268245 40.73166492 41.80967989 42.22261449 37.75 43 C32.85122879 42.1002257 29.78674426 39.95369898 26.875 35.9375 C25.83238188 33.74251448 25.12845607 31.81866277 24.6875 29.4375 C23.57375 29.540625 22.46 29.64375 21.3125 29.75 C14.83911354 29.71562804 9.44536514 26.85391517 4.63671875 22.640625 C-0.35516306 17.2959978 -3.9673984 11.30263787 -4.625 3.9375 C-4.15367637 0.16691098 -3.91251511 0.51674728 0 0 Z " fill="#FCFCFC" transform="translate(11.3125,4.5625)"/>
<path d="M0 0 C4 5 4 5 5.796875 7.4453125 C8.16046633 10.18607266 10.42073617 11.80525769 13.5 13.6875 C14.4384375 14.26886719 15.376875 14.85023437 16.34375 15.44921875 C18.53165097 16.72656682 20.71626594 17.90660846 23 19 C21.72869015 24.46663236 19.67252673 26.91436914 15 30 C11.125 30.8125 11.125 30.8125 8 31 C8 32.32 8 33.64 8 35 C6.19921875 34.8046875 6.19921875 34.8046875 4 34 C2.33203125 31.8203125 2.33203125 31.8203125 0.8125 29.125 C0.04873047 27.79855469 0.04873047 27.79855469 -0.73046875 26.4453125 C-3.27111612 21.55163479 -3.21617206 17.37864217 -3.25 12 C-3.270625 11.18015625 -3.29125 10.3603125 -3.3125 9.515625 C-3.31765625 8.72671875 -3.3228125 7.9378125 -3.328125 7.125 C-3.3374707 6.40570313 -3.34681641 5.68640625 -3.35644531 4.9453125 C-2.90371193 2.47450455 -1.89057824 1.58733698 0 0 Z " fill="#836252" transform="translate(22,45)"/>
<path d="M0 0 C3.60312572 2.24913276 6.31902702 4.81569917 8.4375 8.5 C9.12570245 11.55867755 9.4746011 13.88119278 9 17 C6.06139451 19.93860549 3.06196092 20.27076996 -0.9375 20.5 C-4.58494078 20.40200905 -6.72176007 19.94425144 -9.5625 17.625 C-12.20256875 14.78184904 -12.91293197 13.97951532 -13.25 10.1875 C-12.96536066 6.55834844 -12.22214094 4.85703835 -10 2 C-6.77432495 -0.33583366 -3.89785581 -0.61142836 0 0 Z " fill="#F9E89F" transform="translate(64,13)"/>
<path d="M0 0 C2.9706276 3.057999 3.93485383 4.91080429 4.5625 9.125 C4.125 12.1875 4.125 12.1875 2 15.0625 C-0.875 17.1875 -0.875 17.1875 -3.8125 17.75 C-8.63930391 16.86344418 -11.67648348 14.71664176 -14.6875 10.875 C-16.13999127 7.58778292 -16.67583509 4.77246846 -16.875 1.1875 C-14.875 -1.8125 -14.875 -1.8125 -13.25 -2.5625 C-8.18777501 -3.09536579 -4.26752753 -2.69039779 0 0 Z " fill="#FCEBA1" transform="translate(52.875,29.8125)"/>
<path d="M0 0 C1.10025609 1.67119979 2.12980011 3.38918624 3.125 5.125 C8.2124373 13.31967127 13.93265841 17.08549734 23 20 C22.43454163 23.95820859 21.19097652 26.6659053 19 30 C18.01 29.67 17.02 29.34 16 29 C16.66 29 17.32 29 18 29 C18 28.01 18 27.02 18 26 C17.34773438 25.69707031 16.69546875 25.39414062 16.0234375 25.08203125 C7.52139561 21.00656869 2.25757309 16.88635964 -3 9 C-3.99 9.99 -4.98 10.98 -6 12 C-5 0 -5 0 0 0 Z " fill="#846453" transform="translate(26,38)"/>
<path d="M0 0 C6.21340171 -0.38833761 11.82277641 0.31653413 16.734375 4.46484375 C18.1928069 5.94132555 19.59911984 7.46880541 21 9 C21.99 9.66 22.98 10.32 24 11 C24 11.99 24 12.98 24 14 C24.33 14.66 24.66 15.32 25 16 C26 18 26 18 26 21 C23.40234375 21.453125 23.40234375 21.453125 20 21 C17.48239565 18.89009553 15.56361259 16.34305847 13.5625 13.75 C9.44991174 8.50136505 6.03446586 4.96001612 0 2 C0 1.34 0 0.68 0 0 Z " fill="#AFC3D0" transform="translate(22,5)"/>
<path d="M0 0 C1.216875 0.04125 2.43375 0.0825 3.6875 0.125 C3.3575 1.115 3.0275 2.105 2.6875 3.125 C0.0475 3.455 -2.5925 3.785 -5.3125 4.125 C-4.9825 6.105 -4.6525 8.085 -4.3125 10.125 C-2.9925 10.125 -1.6725 10.125 -0.3125 10.125 C-0.6425 8.805 -0.9725 7.485 -1.3125 6.125 C3.18406104 3.87671948 6.76622966 3.95817728 11.6875 4.125 C11.3575 5.115 11.0275 6.105 10.6875 7.125 C8.0475 7.455 5.4075 7.785 2.6875 8.125 C2.6875 8.785 2.6875 9.445 2.6875 10.125 C5.1625 10.62 5.1625 10.62 7.6875 11.125 C7.6875 11.785 7.6875 12.445 7.6875 13.125 C7.01203125 13.02960937 6.3365625 12.93421875 5.640625 12.8359375 C4.74859375 12.72507812 3.8565625 12.61421875 2.9375 12.5 C2.05578125 12.38398438 1.1740625 12.26796875 0.265625 12.1484375 C-2.57614117 12.12260326 -3.94787602 12.59432823 -6.3125 14.125 C-8.6145949 17.34793286 -8.78760654 20.24496324 -8.3125 24.125 C-6.50739862 26.77248202 -4.57169734 28.86580266 -2.3125 31.125 C-3.3025 32.61 -3.3025 32.61 -4.3125 34.125 C-4.869375 33.17625 -5.42625 32.2275 -6 31.25 C-8.45845064 27.92776941 -9.37376686 27.04098445 -13.3125 26.125 C-15.6445802 26.04853835 -17.98095878 26.03356701 -20.3125 26.125 C-19.9825 25.465 -19.6525 24.805 -19.3125 24.125 C-17.0025 24.125 -14.6925 24.125 -12.3125 24.125 C-13.6325 20.825 -14.9525 17.525 -16.3125 14.125 C-13.3125 15.125 -13.3125 15.125 -12.125 17.1875 C-11.856875 17.826875 -11.58875 18.46625 -11.3125 19.125 C-7.46888566 13.43645078 -8.35907201 8.58074131 -9.3125 2.125 C-6.0650689 0.68043345 -3.55743528 -0.12059103 0 0 Z " fill="#886A56" transform="translate(60.3125,1.875)"/>
<path d="M0 0 C1.12083984 -0.02900391 2.24167969 -0.05800781 3.39648438 -0.08789062 C10.11267768 -0.13915928 15.41133751 0.24943281 20.9375 4.3125 C23.09126232 6.52010638 24.3036914 8.65756102 25.9375 11.3125 C23.15134935 10.13374395 21.38183736 8.8293151 19.0625 6.8125 C14.28990083 2.74562351 9.04711785 2.04565414 2.9375 1.3125 C2.9375 1.9725 2.9375 2.6325 2.9375 3.3125 C3.9584375 3.621875 3.9584375 3.621875 5 3.9375 C8.90759851 5.76658866 11.77607939 8.41529034 14.9375 11.3125 C11.3942136 11.3125 10.84395828 10.6836087 8.1875 8.5 C1.87019359 3.62368501 -3.17301111 1.89726374 -11.0625 2.3125 C-10.79378562 10.64264563 -8.21954046 16.72881592 -2.578125 22.94921875 C3.16755875 28.09253243 9.50709665 29.66071023 16.9375 30.3125 C16.9375 30.6425 16.9375 30.9725 16.9375 31.3125 C8.82425893 31.91101778 3.4955797 30.89249176 -2.9375 25.83984375 C-8.21330797 21.03021709 -12.46298507 14.90878111 -13.40234375 7.70703125 C-13.4375 5.25 -13.4375 5.25 -13.0625 1.3125 C-10.49096514 -1.25903486 -3.45049487 0.02906088 0 0 Z " fill="#7F96A5" transform="translate(19.0625,3.6875)"/>
<path d="M0 0 C0.391875 1.051875 0.78375 2.10375 1.1875 3.1875 C4.19497611 10.09355624 9.38533059 13.06197066 16 16 C16 17.65 16 19.3 16 21 C7.1865125 19.63932123 1.50100451 13.98089018 -3.78515625 7.1484375 C-5 5 -5 5 -5 1 C-3 0 -3 0 0 0 Z " fill="#F6E49D" transform="translate(32,37)"/>
<path d="M0 0 C4 5 4 5 5.796875 7.4453125 C8.16046633 10.18607266 10.42073617 11.80525769 13.5 13.6875 C14.4384375 14.26886719 15.376875 14.85023437 16.34375 15.44921875 C18.53165097 16.72656682 20.71626594 17.90660846 23 19 C22.67 19.99 22.34 20.98 22 22 C13.51665846 21.12671484 7.00753708 15.40158086 1.25 9.375 C-0.91528824 6.68385604 -1.0084701 6.23292788 -0.875 2.5625 C-0.58625 1.716875 -0.2975 0.87125 0 0 Z " fill="#F5E39D" transform="translate(22,45)"/>
<path d="M0 0 C0.94875 0.86625 1.8975 1.7325 2.875 2.625 C6.64048229 5.88790252 10.71091849 8.29278939 15.05859375 10.703125 C15.69925781 11.13109375 16.33992188 11.5590625 17 12 C17 12.66 17 13.32 17 14 C14.00724882 14.90417041 12.54208603 15.24763066 9.6484375 13.92578125 C8.89820313 13.39339844 8.14796875 12.86101562 7.375 12.3125 C6.61960937 11.79300781 5.86421875 11.27351563 5.0859375 10.73828125 C2.96435234 8.97029362 1.47070479 7.33364198 0 5 C-0.1875 2.25 -0.1875 2.25 0 0 Z " fill="#F4E19B" transform="translate(20,59)"/>
<path d="M0 0 C2.9375 0.25 2.9375 0.25 6 1 C8 4 8 4 7.625 6.6875 C7.41875 7.450625 7.2125 8.21375 7 9 C4.75 9.75 4.75 9.75 2 10 C-0.375 8.375 -0.375 8.375 -2 6 C-1.7 1.7 -1.7 1.7 0 0 Z " fill="#414A52" transform="translate(60,16)"/>
<path d="M0 0 C-0.33 0.99 -0.66 1.98 -1 3 C-3.64 3.33 -6.28 3.66 -9 4 C-8.67 6.31 -8.34 8.62 -8 11 C-8.99 11.33 -9.98 11.66 -11 12 C-11.66 8.7 -12.32 5.4 -13 2 C-8.50343896 -0.24828052 -4.92127034 -0.16682272 0 0 Z " fill="#343E4B" transform="translate(64,2)"/>
<path d="M0 0 C-0.33 0.99 -0.66 1.98 -1 3 C-3.64 3.33 -6.28 3.66 -9 4 C-9 4.66 -9 5.32 -9 6 C-9.99 6 -10.98 6 -12 6 C-12.33 4.68 -12.66 3.36 -13 2 C-8.50343896 -0.24828052 -4.92127034 -0.16682272 0 0 Z " fill="#353F4C" transform="translate(72,6)"/>
<path d="M0 0 C3.46177709 3.23099195 5.79260262 5.71159837 6.23046875 10.54296875 C6.21628906 11.41566406 6.20210938 12.28835937 6.1875 13.1875 C6.17783203 14.50814453 6.17783203 14.50814453 6.16796875 15.85546875 C6 18 6 18 5 19 C3.33382885 19.04063832 1.66611905 19.042721 0 19 C1.0209375 18.5359375 1.0209375 18.5359375 2.0625 18.0625 C4.185016 16.22661874 4.185016 16.22661874 4.18359375 14.0078125 C3.7557619 8.60074608 2.35652318 5.22272271 -1 1 C-0.67 0.67 -0.34 0.34 0 0 Z " fill="#8D6C5A" transform="translate(68,14)"/>
<path d="M0 0 C3 1 3 1 4.75 4.3125 C6 8 6 8 5 12 C2.03 12 -0.94 12 -4 12 C-3.67 11.34 -3.34 10.68 -3 10 C-0.69 10 1.62 10 4 10 C2.68 6.7 1.36 3.4 0 0 Z " fill="#898C90" transform="translate(44,16)"/>
<path d="M0 0 C1.32 0.33 2.64 0.66 4 1 C3.525625 1.37125 3.05125 1.7425 2.5625 2.125 C0.47794198 4.62646962 0.35378509 6.81593418 0 10 C-0.33 10 -0.66 10 -1 10 C-2.25 3.375 -2.25 3.375 0 0 Z " fill="#D3BD8D" transform="translate(38,28)"/>
</svg>
